<svg xmlns="http://www.w3.org/2000/svg" viewBox="0 0 24 24" fill="none" stroke="currentColor" stroke-width="2" stroke-linecap="round" stroke-linejoin="round">
  <!-- カード枠 -->
  <rect x="3" y="4" width="18" height="16" rx="3"/>
  <!-- docomoのdマーク -->
  <circle cx="12" cy="10" r="4" fill="currentColor" opacity="0.2"/>
  <path d="M9 7v6h2c2 0 3.5-1.5 3.5-3s-1.5-3-3.5-3h-2z" fill="none"/>
  <path d="M10 8v4h1c1.5 0 2.5-1 2.5-2s-1-2-2.5-2h-1z" fill="currentColor"/>
  <!-- 波線 -->
  <path d="M7 15c1 0 1 1 2 1s1-1 2-1 1 1 2 1 1-1 2-1 1 1 2 1" stroke="currentColor" stroke-width="1" fill="none"/>
</svg>